<svg width="96" height="112" viewBox="0 0 96 112" fill="none" xmlns="http://www.w3.org/2000/svg">
<path d="M20.6445 50.3495C19.02 54.6503 16.396 57.2934 11.9806 56.8918C8.06386 56.5355 5.13727 54.3371 3.98112 50.4276C2.8755 46.6891 4.04464 43.5076 7.17393 41.2255C10.1345 39.0665 13.401 39.0658 16.5527 40.7614C20.2096 42.7287 21.3882 45.9798 20.6445 50.3495Z" fill="black"/>
<path d="M37.1696 33.5532C38.7306 30.1431 41.18 28.7004 44.4566 29.0326C46.7282 29.2629 48.4035 30.6355 49.2171 32.8378C50.2153 35.5397 49.8776 38.0115 47.7805 40.126C45.8383 42.0846 43.6163 42.7268 41.0474 41.5043C37.8487 39.9822 36.3118 37.5442 37.1696 33.5532Z" fill="black"/>
<path d="M9.68977 81.3014C10.8901 77.2042 13.428 75.1495 17.2159 76.0362C20.024 76.6936 22.2589 78.5998 22.3031 82.0387C22.3519 85.8424 19.5455 89.216 15.9712 88.9992C11.5963 88.7337 9.38757 86.1969 9.68977 81.3014Z" fill="black"/>
<path d="M49.0007 70.1148C48.7927 69.6335 48.7323 69.4769 48.7091 69.3151C48.1185 65.1871 49.5195 62.0707 53.6454 60.8441C56.8109 59.903 59.2675 61.5774 60.4984 64.3298C61.8004 67.2413 61.3939 70.5289 58.6923 72.3669C55.2129 74.7341 51.7972 73.7926 49.0007 70.1148Z" fill="black"/>
<path d="M56.3109 10.289C60.3252 8.06871 63.5844 8.7606 65.5895 12.3347C67.1541 15.1236 66.7841 18.2268 64.134 20.4486C61.5072 22.6508 58.6332 22.5624 55.9318 20.4938C52.9288 18.1941 52.9883 14.4405 56.3109 10.289Z" fill="black"/>
<path d="M81.6361 28.0226C82.1275 23.1822 85.0986 21.6113 88.9389 22.1595C92.4284 22.6576 94.3815 25.2314 94.2467 28.8861C94.107 32.6756 91.609 34.7935 88.1931 34.8899C84.2341 35.0017 81.707 32.7401 81.6361 28.0226Z" fill="black"/>
<path d="M24.2856 77.8409C30.8116 74.9829 37.0544 72.3276 43.3341 69.7628C44.6398 69.2296 46.3173 68.304 47.2301 70.2459C48.3206 72.5659 46.249 73.0518 44.7932 73.6569C39.1388 76.007 33.4748 78.3381 27.7667 80.5533C25.5797 81.402 23.2152 81.9951 24.2856 77.8409Z" fill="black"/>
<path d="M45.6149 43.7658C47.5067 42.719 48.5455 43.4999 49.0687 44.8897C50.5337 48.7808 51.9192 52.704 53.229 56.65C53.599 57.7645 53.6079 59.0172 52.191 59.6114C51.0468 60.0913 50.1678 59.6404 49.8079 58.5574C48.2053 53.7359 45.3654 49.292 45.6149 43.7658Z" fill="black"/>
<path d="M13.3083 71.9489C12.7298 68.4602 12.2333 65.35 11.8738 62.2241C11.7045 60.7522 11.5338 59.0249 13.6872 58.8062C15.4584 58.6264 15.9142 60.045 16.1038 61.384C16.5678 64.662 16.9629 67.9523 17.2708 71.2483C17.3762 72.3766 17.351 73.6728 15.8837 74.0925C14.3654 74.5269 13.8021 73.5419 13.3083 71.9489Z" fill="black"/>
<path d="M26.3607 40.3177C28.6966 39.3518 30.6732 38.5025 32.6856 37.7488C33.8761 37.303 34.9903 37.4321 35.6287 38.7405C36.3306 40.179 35.471 40.9108 34.3123 41.4136C31.4298 42.6646 28.5543 43.9387 25.6245 45.0704C24.4404 45.5277 22.9154 46.1226 22.1405 44.4822C21.2177 42.5287 22.8313 41.8957 24.1889 41.2444C24.7842 40.9589 25.4064 40.7294 26.3607 40.3177Z" fill="black"/>
<path d="M68.579 17.6077C72.7184 18.1585 76.0388 20.12 79.5278 21.6412C80.5167 22.0723 81.1861 22.8383 80.8471 23.9997C80.5394 25.0543 79.7197 25.8633 78.6299 25.5319C74.8114 24.3706 71.1527 22.7731 67.9564 20.3597C67.1281 19.7343 67.433 18.5211 68.579 17.6077Z" fill="black"/>
<path d="M55.0252 23.5162C53.7445 25.2165 52.6402 26.671 51.3753 27.9691C50.4238 28.9456 49.1866 29.7127 47.8747 28.5838C46.3881 27.3047 47.5338 26.2089 48.3633 25.2018C49.3114 24.0509 50.2303 22.8392 51.3534 21.8776C53.2284 20.2723 54.6326 20.5952 55.0252 23.5162Z" fill="black"/>
</svg>
